<svg style="fill:#047cc0;" id="Layer_4" data-name="Layer 4" xmlns="http://www.w3.org/2000/svg" viewBox="0 0 63.84 48"><defs><style>.cls-1{fill:#3d70b2;}</style></defs><title>Artboard 105</title><path class="cls-1" d="M61,21.85H53.4v-8.1a2.28,2.28,0,0,0-2.28-2.28H43.57V2.28A2.28,2.28,0,0,0,41.29,0h-39A2.28,2.28,0,0,0,0,2.28V23.75A2.28,2.28,0,0,0,2.28,26H9.83v9.19a2.28,2.28,0,0,0,2.28,2.28H19.7v8.1A2.28,2.28,0,0,0,22,47.88H61a2.28,2.28,0,0,0,2.28-2.28V24.12A2.28,2.28,0,0,0,61,21.85ZM2.28,24A.28.28,0,0,1,2,23.75V2.28A.28.28,0,0,1,2.28,2h39a.28.28,0,0,1,.28.28v9.19H12.11a2.28,2.28,0,0,0-2.28,2.28V24Zm9.83,11.47a.28.28,0,0,1-.28-.28V13.75a.28.28,0,0,1,.28-.28h39a.28.28,0,0,1,.28.28v8.1H22a2.28,2.28,0,0,0-2.28,2.28V35.51ZM61.27,45.6a.28.28,0,0,1-.28.28H22a.28.28,0,0,1-.28-.28V24.12a.28.28,0,0,1,.28-.28H61a.28.28,0,0,1,.28.28Z"/><path class="cls-1" d="M37.48,30.62a.87.87,0,0,0-1.18-.32l-7.67,4.43a.86.86,0,0,0,0,1.5l7.67,4.43a.86.86,0,1,0,.86-1.5l-6.37-3.68,6.37-3.68A.87.87,0,0,0,37.48,30.62Z"/><path class="cls-1" d="M43.71,30.24a.87.87,0,0,0-1.11.5L39.19,39.8a.87.87,0,0,0,.5,1.11A.88.88,0,0,0,40,41a.87.87,0,0,0,.81-.56l3.41-9.05A.87.87,0,0,0,43.71,30.24Z"/><path class="cls-1" d="M55.4,34.73,47.73,30.3a.86.86,0,0,0-.86,1.5l6.37,3.68-6.37,3.68a.86.86,0,1,0,.86,1.5l7.67-4.43a.86.86,0,0,0,0-1.5Z"/></svg>
